<svg id="visual" viewBox="0 0 1360 800" width="1360" height="800" xmlns="http://www.w3.org/2000/svg" xmlns:xlink="http://www.w3.org/1999/xlink" version="1.1"><rect x="0" y="0" width="1360" height="800" fill="#394975"></rect><path d="M0 628L37.8 635.5C75.7 643 151.3 658 226.8 662.2C302.3 666.3 377.7 659.7 453.2 641.3C528.7 623 604.3 593 680 579.7C755.7 566.3 831.3 569.7 906.8 582.5C982.3 595.3 1057.7 617.7 1133.2 636.8C1208.7 656 1284.3 672 1322.2 680L1360 688L1360 801L1322.2 801C1284.3 801 1208.7 801 1133.2 801C1057.7 801 982.3 801 906.8 801C831.3 801 755.7 801 680 801C604.3 801 528.7 801 453.2 801C377.7 801 302.3 801 226.8 801C151.3 801 75.7 801 37.8 801L0 801Z" fill="#0066FF" stroke-linecap="round" stroke-linejoin="miter"></path></svg>